<svg xmlns="http://www.w3.org/2000/svg" xmlns:xlink="http://www.w3.org/1999/xlink" contentStyleType="text/css" data-diagram-type="CLASS" height="835px" preserveAspectRatio="none" style="width:2139px;height:835px;background:#FFFFFF;" version="1.1" viewBox="0 0 2139 835" width="2139px" zoomAndPan="magnify"><title>Diagrama de Clases - TechClassUC</title><defs/><g><g class="title" data-source-line="4"><text fill="#000000" font-family="sans-serif" font-size="14" font-weight="bold" lengthAdjust="spacing" textLength="271.9199" x="926.54" y="22.9951">Diagrama de Clases - TechClassUC</text></g><!--cluster app--><g class="cluster" data-entity="app" data-source-line="8" data-uid="ent0002" id="cluster_app"><path d="M1478.5,43.2969 L1508.9902,43.2969 A3.75,3.75 0 0 1 1511.4902,45.7969 L1518.4902,65.5938 L1707.5,65.5938 A2.5,2.5 0 0 1 1710,68.0938 L1710,155.7969 A2.5,2.5 0 0 1 1707.5,158.2969 L1478.5,158.2969 A2.5,2.5 0 0 1 1476,155.7969 L1476,45.7969 A2.5,2.5 0 0 1 1478.5,43.2969" fill="none" style="stroke:#000000;stroke-width:1.5;"/><line style="stroke:#000000;stroke-width:1.5;" x1="1476" x2="1518.4902" y1="65.5938" y2="65.5938"/><text fill="#000000" font-family="sans-serif" font-size="14" font-weight="bold" lengthAdjust="spacing" textLength="29.4902" x="1480" y="58.292">app</text></g><!--cluster vista--><g class="cluster" data-entity="vista" data-source-line="16" data-uid="ent0004" id="cluster_vista"><path d="M1892.5,296.7969 L1931.8975,296.7969 A3.75,3.75 0 0 1 1934.3975,299.2969 L1941.3975,319.0938 L2129.5,319.0938 A2.5,2.5 0 0 1 2132,321.5938 L2132,825.7969 A2.5,2.5 0 0 1 2129.5,828.2969 L1892.5,828.2969 A2.5,2.5 0 0 1 1890,825.7969 L1890,299.2969 A2.5,2.5 0 0 1 1892.5,296.7969" fill="none" style="stroke:#000000;stroke-width:1.5;"/><line style="stroke:#000000;stroke-width:1.5;" x1="1890" x2="1941.3975" y1="319.0938" y2="319.0938"/><text fill="#000000" font-family="sans-serif" font-size="14" font-weight="bold" lengthAdjust="spacing" textLength="38.3975" x="1894" y="311.792">vista</text></g><!--cluster controlador--><g class="cluster" data-entity="controlador" data-source-line="37" data-uid="ent0008" id="cluster_controlador"><path d="M1153.5,207.2969 L1246.3887,207.2969 A3.75,3.75 0 0 1 1248.8887,209.7969 L1255.8887,229.5938 L1452.5,229.5938 A2.5,2.5 0 0 1 1455,232.0938 L1455,482.7969 A2.5,2.5 0 0 1 1452.5,485.2969 L1153.5,485.2969 A2.5,2.5 0 0 1 1151,482.7969 L1151,209.7969 A2.5,2.5 0 0 1 1153.5,207.2969" fill="none" style="stroke:#000000;stroke-width:1.5;"/><line style="stroke:#000000;stroke-width:1.5;" x1="1151" x2="1255.8887" y1="229.5938" y2="229.5938"/><text fill="#000000" font-family="sans-serif" font-size="14" font-weight="bold" lengthAdjust="spacing" textLength="91.8887" x="1155" y="222.292">controlador</text></g><!--cluster modelo--><g class="cluster" data-entity="modelo" data-source-line="55" data-uid="ent0010" id="cluster_modelo"><path d="M8.5,539.7969 L67.6396,539.7969 A3.75,3.75 0 0 1 70.1396,542.2969 L77.1396,562.0938 L1863.5,562.0938 A2.5,2.5 0 0 1 1866,564.5938 L1866,799.2969 A2.5,2.5 0 0 1 1863.5,801.7969 L8.5,801.7969 A2.5,2.5 0 0 1 6,799.2969 L6,542.2969 A2.5,2.5 0 0 1 8.5,539.7969" fill="none" style="stroke:#000000;stroke-width:1.5;"/><line style="stroke:#000000;stroke-width:1.5;" x1="6" x2="77.1396" y1="562.0938" y2="562.0938"/><text fill="#000000" font-family="sans-serif" font-size="14" font-weight="bold" lengthAdjust="spacing" textLength="58.1396" x="10" y="554.792">modelo</text></g><!--class Main--><g class="entity" data-entity="Main" data-source-line="9" data-uid="ent0003" id="entity_Main"><rect fill="#F1F1F1" height="64.2969" rx="2.5" ry="2.5" style="stroke:#181818;stroke-width:0.5;" width="203.085" x="1491.5" y="78.2969"/><ellipse cx="1572.082" cy="94.2969" fill="#ADD1B2" rx="11" ry="11" style="stroke:#181818;stroke-width:1;"/><path d="M1575.0508,99.9375 Q1574.4727,100.2344 1573.832,100.375 Q1573.1914,100.5313 1572.4883,100.5313 Q1569.9883,100.5313 1568.6602,98.8906 Q1567.3477,97.2344 1567.3477,94.1094 Q1567.3477,90.9844 1568.6602,89.3281 Q1569.9883,87.6719 1572.4883,87.6719 Q1573.1914,87.6719 1573.832,87.8281 Q1574.4883,87.9844 1575.0508,88.2813 L1575.0508,91 Q1574.4258,90.4219 1573.832,90.1563 Q1573.2383,89.875 1572.6133,89.875 Q1571.2695,89.875 1570.582,90.9531 Q1569.8945,92.0156 1569.8945,94.1094 Q1569.8945,96.2031 1570.582,97.2813 Q1571.2695,98.3438 1572.6133,98.3438 Q1573.2383,98.3438 1573.832,98.0781 Q1574.4258,97.7969 1575.0508,97.2188 L1575.0508,99.9375 Z " fill="#000000"/><text fill="#000000" font-family="sans-serif" font-size="14" lengthAdjust="spacing" textLength="33.4209" x="1592.582" y="99.1436">Main</text><line style="stroke:#181818;stroke-width:0.5;" x1="1492.5" x2="1693.585" y1="110.2969" y2="110.2969"/><line style="stroke:#181818;stroke-width:0.5;" x1="1492.5" x2="1693.585" y1="118.2969" y2="118.2969"/><ellipse cx="1502.5" cy="131.9453" fill="#84BE84" rx="3" ry="3" style="stroke:#038048;stroke-width:1;"/><text fill="#000000" font-family="sans-serif" font-size="14" lengthAdjust="spacing" textLength="177.085" x="1511.5" y="135.292">main(args: String[]): void</text></g><!--class Vista--><g class="entity" data-entity="Vista" data-source-line="17" data-uid="ent0005" id="entity_Vista"><rect fill="#F1F1F1" height="263.8594" rx="2.5" ry="2.5" style="stroke:#181818;stroke-width:0.5;" width="210.2764" x="1906" y="548.2969"/><ellipse cx="1989.4736" cy="564.2969" fill="#ADD1B2" rx="11" ry="11" style="stroke:#181818;stroke-width:1;"/><path d="M1992.4424,569.9375 Q1991.8643,570.2344 1991.2236,570.375 Q1990.583,570.5313 1989.8799,570.5313 Q1987.3799,570.5313 1986.0518,568.8906 Q1984.7393,567.2344 1984.7393,564.1094 Q1984.7393,560.9844 1986.0518,559.3281 Q1987.3799,557.6719 1989.8799,557.6719 Q1990.583,557.6719 1991.2236,557.8281 Q1991.8799,557.9844 1992.4424,558.2813 L1992.4424,561 Q1991.8174,560.4219 1991.2236,560.1563 Q1990.6299,559.875 1990.0049,559.875 Q1988.6611,559.875 1987.9736,560.9531 Q1987.2861,562.0156 1987.2861,564.1094 Q1987.2861,566.2031 1987.9736,567.2813 Q1988.6611,568.3438 1990.0049,568.3438 Q1990.6299,568.3438 1991.2236,568.0781 Q1991.8174,567.7969 1992.4424,567.2188 L1992.4424,569.9375 Z " fill="#000000"/><text fill="#000000" font-family="sans-serif" font-size="14" lengthAdjust="spacing" textLength="34.8291" x="2009.9736" y="569.1436">Vista</text><line style="stroke:#181818;stroke-width:0.5;" x1="1907" x2="2115.2764" y1="580.2969" y2="580.2969"/><rect fill="none" height="6" style="stroke:#C82930;stroke-width:1;" width="6" x="1914" y="590.9453"/><text fill="#000000" font-family="sans-serif" font-size="14" lengthAdjust="spacing" textLength="139.4941" x="1926" y="597.292">btnAgregar: JButton</text><rect fill="none" height="6" style="stroke:#C82930;stroke-width:1;" width="6" x="1914" y="607.2422"/><text fill="#000000" font-family="sans-serif" font-size="14" lengthAdjust="spacing" textLength="139.248" x="1926" y="613.5889">btnAtender: JButton</text><rect fill="none" height="6" style="stroke:#C82930;stroke-width:1;" width="6" x="1914" y="623.5391"/><text fill="#000000" font-family="sans-serif" font-size="14" lengthAdjust="spacing" textLength="140.7998" x="1926" y="629.8857">btnEliminar: JButton</text><rect fill="none" height="6" style="stroke:#C82930;stroke-width:1;" width="6" x="1914" y="639.8359"/><text fill="#000000" font-family="sans-serif" font-size="14" lengthAdjust="spacing" textLength="149.6455" x="1926" y="646.1826">btnDeshacer: JButton</text><rect fill="none" height="6" style="stroke:#C82930;stroke-width:1;" width="6" x="1914" y="656.1328"/><text fill="#000000" font-family="sans-serif" font-size="14" lengthAdjust="spacing" textLength="131.2432" x="1926" y="662.4795">btnBuscar: JButton</text><rect fill="none" height="6" style="stroke:#C82930;stroke-width:1;" width="6" x="1914" y="672.4297"/><text fill="#000000" font-family="sans-serif" font-size="14" lengthAdjust="spacing" textLength="144.6348" x="1926" y="678.7764">txtBuscar: JTextField</text><ellipse cx="1917" cy="712.0234" fill="#84BE84" rx="3" ry="3" style="stroke:#038048;stroke-width:1;"/><text fill="#000000" font-family="sans-serif" font-size="14" lengthAdjust="spacing" textLength="174.125" x="1926" y="715.3701">getBtnAgregar(): JButton</text><ellipse cx="1917" cy="728.3203" fill="#84BE84" rx="3" ry="3" style="stroke:#038048;stroke-width:1;"/><text fill="#000000" font-family="sans-serif" font-size="14" lengthAdjust="spacing" textLength="173.8789" x="1926" y="731.667">getBtnAtender(): JButton</text><ellipse cx="1917" cy="744.6172" fill="#84BE84" rx="3" ry="3" style="stroke:#038048;stroke-width:1;"/><text fill="#000000" font-family="sans-serif" font-size="14" lengthAdjust="spacing" textLength="175.4307" x="1926" y="747.9639">getBtnEliminar(): JButton</text><ellipse cx="1917" cy="760.9141" fill="#84BE84" rx="3" ry="3" style="stroke:#038048;stroke-width:1;"/><text fill="#000000" font-family="sans-serif" font-size="14" lengthAdjust="spacing" textLength="184.2764" x="1926" y="764.2607">getBtnDeshacer(): JButton</text><ellipse cx="1917" cy="777.2109" fill="#84BE84" rx="3" ry="3" style="stroke:#038048;stroke-width:1;"/><text fill="#000000" font-family="sans-serif" font-size="14" lengthAdjust="spacing" textLength="165.874" x="1926" y="780.5576">getBtnBuscar(): JButton</text><ellipse cx="1917" cy="793.5078" fill="#84BE84" rx="3" ry="3" style="stroke:#038048;stroke-width:1;"/><text fill="#000000" font-family="sans-serif" font-size="14" lengthAdjust="spacing" textLength="181.6104" x="1926" y="796.8545">getTxtBuscar(): JTextField</text><line style="stroke:#181818;stroke-width:1;" x1="1907" x2="1985.0864" y1="694.2266" y2="694.2266"/><text fill="#000000" font-family="sans-serif" font-size="14" lengthAdjust="spacing" textLength="52.1035" x="1985.0864" y="698.5732">Getters</text><line style="stroke:#181818;stroke-width:1;" x1="2037.1899" x2="2115.2764" y1="694.2266" y2="694.2266"/><line style="stroke:#181818;stroke-width:1;" x1="1907" x2="2115.2764" y1="804.1563" y2="804.1563"/></g><!--class JFrame--><g class="entity" data-entity="JFrame" data-source-line="18" data-uid="ent0006" id="entity_JFrame"><rect fill="#F1F1F1" height="48" rx="2.5" ry="2.5" style="stroke:#181818;stroke-width:0.5;" width="80.7676" x="1970.5" y="331.7969"/><ellipse cx="1985.5" cy="347.7969" fill="#ADD1B2" rx="11" ry="11" style="stroke:#181818;stroke-width:1;"/><path d="M1988.4688,353.4375 Q1987.8906,353.7344 1987.25,353.875 Q1986.6094,354.0313 1985.9063,354.0313 Q1983.4063,354.0313 1982.0781,352.3906 Q1980.7656,350.7344 1980.7656,347.6094 Q1980.7656,344.4844 1982.0781,342.8281 Q1983.4063,341.1719 1985.9063,341.1719 Q1986.6094,341.1719 1987.25,341.3281 Q1987.9063,341.4844 1988.4688,341.7813 L1988.4688,344.5 Q1987.8438,343.9219 1987.25,343.6563 Q1986.6563,343.375 1986.0313,343.375 Q1984.6875,343.375 1984,344.4531 Q1983.3125,345.5156 1983.3125,347.6094 Q1983.3125,349.7031 1984,350.7813 Q1984.6875,351.8438 1986.0313,351.8438 Q1986.6563,351.8438 1987.25,351.5781 Q1987.8438,351.2969 1988.4688,350.7188 L1988.4688,353.4375 Z " fill="#000000"/><text fill="#000000" font-family="sans-serif" font-size="14" lengthAdjust="spacing" textLength="48.7676" x="1999.5" y="352.6436">JFrame</text><line style="stroke:#181818;stroke-width:0.5;" x1="1971.5" x2="2050.2676" y1="363.7969" y2="363.7969"/><line style="stroke:#181818;stroke-width:0.5;" x1="1971.5" x2="2050.2676" y1="371.7969" y2="371.7969"/></g><!--class Controlador--><g class="entity" data-entity="Controlador" data-source-line="38" data-uid="ent0009" id="entity_Controlador"><rect fill="#F1F1F1" height="227.2656" rx="2.5" ry="2.5" style="stroke:#181818;stroke-width:0.5;" width="272.4287" x="1167" y="242.2969"/><ellipse cx="1257.6138" cy="258.2969" fill="#ADD1B2" rx="11" ry="11" style="stroke:#181818;stroke-width:1;"/><path d="M1260.5825,263.9375 Q1260.0044,264.2344 1259.3638,264.375 Q1258.7231,264.5313 1258.02,264.5313 Q1255.52,264.5313 1254.1919,262.8906 Q1252.8794,261.2344 1252.8794,258.1094 Q1252.8794,254.9844 1254.1919,253.3281 Q1255.52,251.6719 1258.02,251.6719 Q1258.7231,251.6719 1259.3638,251.8281 Q1260.02,251.9844 1260.5825,252.2813 L1260.5825,255 Q1259.9575,254.4219 1259.3638,254.1563 Q1258.77,253.875 1258.145,253.875 Q1256.8013,253.875 1256.1138,254.9531 Q1255.4263,256.0156 1255.4263,258.1094 Q1255.4263,260.2031 1256.1138,261.2813 Q1256.8013,262.3438 1258.145,262.3438 Q1258.77,262.3438 1259.3638,262.0781 Q1259.9575,261.7969 1260.5825,261.2188 L1260.5825,263.9375 Z " fill="#000000"/><text fill="#000000" font-family="sans-serif" font-size="14" lengthAdjust="spacing" textLength="82.7012" x="1278.1138" y="263.1436">Controlador</text><line style="stroke:#181818;stroke-width:0.5;" x1="1168" x2="1438.4287" y1="274.2969" y2="274.2969"/><rect fill="none" height="6" style="stroke:#C82930;stroke-width:1;" width="6" x="1175" y="284.9453"/><text fill="#000000" font-family="sans-serif" font-size="14" lengthAdjust="spacing" textLength="77.5332" x="1187" y="291.292">vista: Vista</text><rect fill="none" height="6" style="stroke:#C82930;stroke-width:1;" width="6" x="1175" y="301.2422"/><text fill="#000000" font-family="sans-serif" font-size="14" lengthAdjust="spacing" textLength="212.6387" x="1187" y="307.5889">gestionCliente: GestionCliente</text><rect fill="none" height="6" style="stroke:#C82930;stroke-width:1;" width="6" x="1175" y="317.5391"/><text fill="#000000" font-family="sans-serif" font-size="14" lengthAdjust="spacing" textLength="246.4287" x="1187" y="323.8857">historialAtencion: HistorialAtencion</text><rect fill="none" height="6" style="stroke:#C82930;stroke-width:1;" width="6" x="1175" y="333.8359"/><text fill="#000000" font-family="sans-serif" font-size="14" lengthAdjust="spacing" textLength="246.0527" x="1187" y="340.1826">registroAcciones: RegistroAcciones</text><rect fill="none" height="6" style="stroke:#C82930;stroke-width:1;" width="6" x="1175" y="350.1328"/><text fill="#000000" font-family="sans-serif" font-size="14" lengthAdjust="spacing" textLength="244.918" x="1187" y="356.4795">normalClientsAttendedCounter: int</text><line style="stroke:#181818;stroke-width:0.5;" x1="1168" x2="1438.4287" y1="363.7813" y2="363.7813"/><ellipse cx="1178" cy="377.4297" fill="#84BE84" rx="3" ry="3" style="stroke:#038048;stroke-width:1;"/><text fill="#000000" font-family="sans-serif" font-size="14" lengthAdjust="spacing" textLength="171.1582" x="1187" y="380.7764">Controlador(vista: Vista)</text><rect fill="#F24D5C" height="6" style="stroke:#C82930;stroke-width:1;" width="6" x="1175" y="390.7266"/><text fill="#000000" font-family="sans-serif" font-size="14" lengthAdjust="spacing" textLength="153.918" x="1187" y="397.0732">agregarCliente(): void</text><rect fill="#F24D5C" height="6" style="stroke:#C82930;stroke-width:1;" width="6" x="1175" y="407.0234"/><text fill="#000000" font-family="sans-serif" font-size="14" lengthAdjust="spacing" textLength="153.6719" x="1187" y="413.3701">atenderCliente(): void</text><rect fill="#F24D5C" height="6" style="stroke:#C82930;stroke-width:1;" width="6" x="1175" y="423.3203"/><text fill="#000000" font-family="sans-serif" font-size="14" lengthAdjust="spacing" textLength="155.9893" x="1187" y="429.667">eliminarCliente(): void</text><rect fill="#F24D5C" height="6" style="stroke:#C82930;stroke-width:1;" width="6" x="1175" y="439.6172"/><text fill="#000000" font-family="sans-serif" font-size="14" lengthAdjust="spacing" textLength="206.0625" x="1187" y="445.9639">deshacerUltimaAccion(): void</text><rect fill="#F24D5C" height="6" style="stroke:#C82930;stroke-width:1;" width="6" x="1175" y="455.9141"/><text fill="#000000" font-family="sans-serif" font-size="14" lengthAdjust="spacing" textLength="223.0635" x="1187" y="462.2607">actualizarEstadoBotones(): void</text></g><!--class Cliente--><g class="entity" data-entity="Cliente" data-source-line="56" data-uid="ent0011" id="entity_Cliente"><rect fill="#F1F1F1" height="210.9688" rx="2.5" ry="2.5" style="stroke:#181818;stroke-width:0.5;" width="339.0654" x="1510.5" y="574.7969"/><ellipse cx="1651.2109" cy="590.7969" fill="#ADD1B2" rx="11" ry="11" style="stroke:#181818;stroke-width:1;"/><path d="M1654.1797,596.4375 Q1653.6016,596.7344 1652.9609,596.875 Q1652.3203,597.0313 1651.6172,597.0313 Q1649.1172,597.0313 1647.7891,595.3906 Q1646.4766,593.7344 1646.4766,590.6094 Q1646.4766,587.4844 1647.7891,585.8281 Q1649.1172,584.1719 1651.6172,584.1719 Q1652.3203,584.1719 1652.9609,584.3281 Q1653.6172,584.4844 1654.1797,584.7813 L1654.1797,587.5 Q1653.5547,586.9219 1652.9609,586.6563 Q1652.3672,586.375 1651.7422,586.375 Q1650.3984,586.375 1649.7109,587.4531 Q1649.0234,588.5156 1649.0234,590.6094 Q1649.0234,592.7031 1649.7109,593.7813 Q1650.3984,594.8438 1651.7422,594.8438 Q1652.3672,594.8438 1652.9609,594.5781 Q1653.5547,594.2969 1654.1797,593.7188 L1654.1797,596.4375 Z " fill="#000000"/><text fill="#000000" font-family="sans-serif" font-size="14" lengthAdjust="spacing" textLength="49.1436" x="1671.7109" y="595.6436">Cliente</text><line style="stroke:#181818;stroke-width:0.5;" x1="1511.5" x2="1848.5654" y1="606.7969" y2="606.7969"/><rect fill="none" height="6" style="stroke:#C82930;stroke-width:1;" width="6" x="1518.5" y="617.4453"/><text fill="#000000" font-family="sans-serif" font-size="14" lengthAdjust="spacing" textLength="40.1953" x="1530.5" y="623.792">id: int</text><rect fill="none" height="6" style="stroke:#C82930;stroke-width:1;" width="6" x="1518.5" y="633.7422"/><text fill="#000000" font-family="sans-serif" font-size="14" lengthAdjust="spacing" textLength="105.2803" x="1530.5" y="640.0889">nombre: String</text><rect fill="none" height="6" style="stroke:#C82930;stroke-width:1;" width="6" x="1518.5" y="650.0391"/><text fill="#000000" font-family="sans-serif" font-size="14" lengthAdjust="spacing" textLength="137.8467" x="1530.5" y="656.3857">tipoSolicitud: String</text><rect fill="none" height="6" style="stroke:#C82930;stroke-width:1;" width="6" x="1518.5" y="666.3359"/><text fill="#000000" font-family="sans-serif" font-size="14" lengthAdjust="spacing" textLength="114.0439" x="1530.5" y="672.6826">prioridad: String</text><rect fill="none" height="6" style="stroke:#C82930;stroke-width:1;" width="6" x="1518.5" y="682.6328"/><text fill="#000000" font-family="sans-serif" font-size="14" lengthAdjust="spacing" textLength="218.1689" x="1530.5" y="688.9795">tiempoLlegada: LocalDateTime</text><rect fill="none" height="6" style="stroke:#C82930;stroke-width:1;" width="6" x="1518.5" y="698.9297"/><text fill="#000000" font-family="sans-serif" font-size="14" lengthAdjust="spacing" textLength="224.5127" x="1530.5" y="705.2764">tiempoAtencion: LocalDateTime</text><line style="stroke:#181818;stroke-width:0.5;" x1="1511.5" x2="1848.5654" y1="712.5781" y2="712.5781"/><ellipse cx="1521.5" cy="726.2266" fill="#84BE84" rx="3" ry="3" style="stroke:#038048;stroke-width:1;"/><text fill="#000000" font-family="sans-serif" font-size="14" lengthAdjust="spacing" textLength="243.8037" x="1530.5" y="729.5732">Cliente(id, nombre, tipo, prioridad)</text><ellipse cx="1521.5" cy="742.5234" fill="#84BE84" rx="3" ry="3" style="stroke:#038048;stroke-width:1;"/><text fill="#000000" font-family="sans-serif" font-size="14" lengthAdjust="spacing" textLength="261.4883" x="1530.5" y="745.8701">getTiempoAtencion(): LocalDateTime</text><ellipse cx="1521.5" cy="758.8203" fill="#84BE84" rx="3" ry="3" style="stroke:#038048;stroke-width:1;"/><text fill="#000000" font-family="sans-serif" font-size="14" lengthAdjust="spacing" textLength="313.0654" x="1530.5" y="762.167">setTiempoAtencion(dt: LocalDateTime): void</text><ellipse cx="1521.5" cy="775.1172" fill="#84BE84" rx="3" ry="3" style="stroke:#038048;stroke-width:1;"/><text fill="#000000" font-family="sans-serif" font-size="14" lengthAdjust="spacing" textLength="147.5127" x="1530.5" y="778.4639">getPrioridad(): String</text></g><!--class GestionCliente--><g class="entity" data-entity="GestionCliente" data-source-line="69" data-uid="ent0012" id="entity_GestionCliente"><rect fill="#F1F1F1" height="162.0781" rx="2.5" ry="2.5" style="stroke:#181818;stroke-width:0.5;" width="344.4385" x="1131" y="599.2969"/><ellipse cx="1247.6108" cy="615.2969" fill="#ADD1B2" rx="11" ry="11" style="stroke:#181818;stroke-width:1;"/><path d="M1250.5796,620.9375 Q1250.0015,621.2344 1249.3608,621.375 Q1248.7202,621.5313 1248.0171,621.5313 Q1245.5171,621.5313 1244.189,619.8906 Q1242.8765,618.2344 1242.8765,615.1094 Q1242.8765,611.9844 1244.189,610.3281 Q1245.5171,608.6719 1248.0171,608.6719 Q1248.7202,608.6719 1249.3608,608.8281 Q1250.0171,608.9844 1250.5796,609.2813 L1250.5796,612 Q1249.9546,611.4219 1249.3608,611.1563 Q1248.7671,610.875 1248.1421,610.875 Q1246.7983,610.875 1246.1108,611.9531 Q1245.4233,613.0156 1245.4233,615.1094 Q1245.4233,617.2031 1246.1108,618.2813 Q1246.7983,619.3438 1248.1421,619.3438 Q1248.7671,619.3438 1249.3608,619.0781 Q1249.9546,618.7969 1250.5796,618.2188 L1250.5796,620.9375 Z " fill="#000000"/><text fill="#000000" font-family="sans-serif" font-size="14" lengthAdjust="spacing" textLength="102.7168" x="1268.1108" y="620.1436">GestionCliente</text><line style="stroke:#181818;stroke-width:0.5;" x1="1132" x2="1474.4385" y1="631.2969" y2="631.2969"/><rect fill="none" height="6" style="stroke:#C82930;stroke-width:1;" width="6" x="1139" y="641.9453"/><text fill="#000000" font-family="sans-serif" font-size="14" lengthAdjust="spacing" textLength="250.6602" x="1151" y="648.292">colaClientes: ArrayDeque&lt;Cliente&gt;</text><line style="stroke:#181818;stroke-width:0.5;" x1="1132" x2="1474.4385" y1="655.5938" y2="655.5938"/><ellipse cx="1142" cy="669.2422" fill="#84BE84" rx="3" ry="3" style="stroke:#038048;stroke-width:1;"/><text fill="#000000" font-family="sans-serif" font-size="14" lengthAdjust="spacing" textLength="259.2939" x="1151" y="672.5889">agregarCliente(cliente: Cliente): void</text><ellipse cx="1142" cy="685.5391" fill="#84BE84" rx="3" ry="3" style="stroke:#038048;stroke-width:1;"/><text fill="#000000" font-family="sans-serif" font-size="14" lengthAdjust="spacing" textLength="318.1582" x="1151" y="688.8857">agregarClienteAlFrente(cliente: Cliente): void</text><ellipse cx="1142" cy="701.8359" fill="#84BE84" rx="3" ry="3" style="stroke:#038048;stroke-width:1;"/><text fill="#000000" font-family="sans-serif" font-size="14" lengthAdjust="spacing" textLength="215.7012" x="1151" y="705.1826">eliminarCliente(id: int): Cliente</text><ellipse cx="1142" cy="718.1328" fill="#84BE84" rx="3" ry="3" style="stroke:#038048;stroke-width:1;"/><text fill="#000000" font-family="sans-serif" font-size="14" lengthAdjust="spacing" textLength="318.4385" x="1151" y="721.4795">atenderClientePorPrioridad(p: String): Cliente</text><ellipse cx="1142" cy="734.4297" fill="#84BE84" rx="3" ry="3" style="stroke:#038048;stroke-width:1;"/><text fill="#000000" font-family="sans-serif" font-size="14" lengthAdjust="spacing" textLength="173.1885" x="1151" y="737.7764">atenderCliente(): Cliente</text><ellipse cx="1142" cy="750.7266" fill="#84BE84" rx="3" ry="3" style="stroke:#038048;stroke-width:1;"/><text fill="#000000" font-family="sans-serif" font-size="14" lengthAdjust="spacing" textLength="192.4863" x="1151" y="754.0732">totalClientesEnEspera(): int</text></g><!--class HistorialAtencion--><g class="entity" data-entity="HistorialAtencion" data-source-line="79" data-uid="ent0013" id="entity_HistorialAtencion"><rect fill="#F1F1F1" height="145.7813" rx="2.5" ry="2.5" style="stroke:#181818;stroke-width:0.5;" width="380.7578" x="306.5" y="607.2969"/><ellipse cx="432.8999" cy="623.2969" fill="#ADD1B2" rx="11" ry="11" style="stroke:#181818;stroke-width:1;"/><path d="M435.8687,628.9375 Q435.2905,629.2344 434.6499,629.375 Q434.0093,629.5313 433.3062,629.5313 Q430.8062,629.5313 429.478,627.8906 Q428.1655,626.2344 428.1655,623.1094 Q428.1655,619.9844 429.478,618.3281 Q430.8062,616.6719 433.3062,616.6719 Q434.0093,616.6719 434.6499,616.8281 Q435.3062,616.9844 435.8687,617.2813 L435.8687,620 Q435.2437,619.4219 434.6499,619.1563 Q434.0562,618.875 433.4312,618.875 Q432.0874,618.875 431.3999,619.9531 Q430.7124,621.0156 430.7124,623.1094 Q430.7124,625.2031 431.3999,626.2813 Q432.0874,627.3438 433.4312,627.3438 Q434.0562,627.3438 434.6499,627.0781 Q435.2437,626.7969 435.8687,626.2188 L435.8687,628.9375 Z " fill="#000000"/><text fill="#000000" font-family="sans-serif" font-size="14" lengthAdjust="spacing" textLength="119.458" x="453.3999" y="628.1436">HistorialAtencion</text><line style="stroke:#181818;stroke-width:0.5;" x1="307.5" x2="686.2578" y1="639.2969" y2="639.2969"/><rect fill="none" height="6" style="stroke:#C82930;stroke-width:1;" width="6" x="314.5" y="649.9453"/><text fill="#000000" font-family="sans-serif" font-size="14" lengthAdjust="spacing" textLength="208.6396" x="326.5" y="656.292">historial: LinkedList&lt;Cliente&gt;</text><line style="stroke:#181818;stroke-width:0.5;" x1="307.5" x2="686.2578" y1="663.5938" y2="663.5938"/><ellipse cx="317.5" cy="677.2422" fill="#84BE84" rx="3" ry="3" style="stroke:#038048;stroke-width:1;"/><text fill="#000000" font-family="sans-serif" font-size="14" lengthAdjust="spacing" textLength="322.0752" x="326.5" y="680.5889">agregarClienteAtendido(cliente: Cliente): void</text><ellipse cx="317.5" cy="693.5391" fill="#84BE84" rx="3" ry="3" style="stroke:#038048;stroke-width:1;"/><text fill="#000000" font-family="sans-serif" font-size="14" lengthAdjust="spacing" textLength="335.5283" x="326.5" y="696.8857">removerUltimoCliente(cliente: Cliente): boolean</text><ellipse cx="317.5" cy="709.8359" fill="#84BE84" rx="3" ry="3" style="stroke:#038048;stroke-width:1;"/><text fill="#000000" font-family="sans-serif" font-size="14" lengthAdjust="spacing" textLength="302.8457" x="326.5" y="713.1826">calcularPromedioTiempoAtencion(): double</text><ellipse cx="317.5" cy="726.1328" fill="#84BE84" rx="3" ry="3" style="stroke:#038048;stroke-width:1;"/><text fill="#000000" font-family="sans-serif" font-size="14" lengthAdjust="spacing" textLength="192.2949" x="326.5" y="729.4795">buscarPorId(id: int): Cliente</text><ellipse cx="317.5" cy="742.4297" fill="#84BE84" rx="3" ry="3" style="stroke:#038048;stroke-width:1;"/><text fill="#000000" font-family="sans-serif" font-size="14" lengthAdjust="spacing" textLength="354.7578" x="326.5" y="745.7764">buscarPorTipoSolicitud(tipo: String): List&lt;Cliente&gt;</text></g><!--class RegistroAcciones--><g class="entity" data-entity="RegistroAcciones" data-source-line="88" data-uid="ent0014" id="entity_RegistroAcciones"><rect fill="#F1F1F1" height="129.4844" rx="2.5" ry="2.5" style="stroke:#181818;stroke-width:0.5;" width="374.0928" x="722" y="615.7969"/><ellipse cx="844.582" cy="631.7969" fill="#ADD1B2" rx="11" ry="11" style="stroke:#181818;stroke-width:1;"/><path d="M847.5508,637.4375 Q846.9727,637.7344 846.332,637.875 Q845.6914,638.0313 844.9883,638.0313 Q842.4883,638.0313 841.1602,636.3906 Q839.8477,634.7344 839.8477,631.6094 Q839.8477,628.4844 841.1602,626.8281 Q842.4883,625.1719 844.9883,625.1719 Q845.6914,625.1719 846.332,625.3281 Q846.9883,625.4844 847.5508,625.7813 L847.5508,628.5 Q846.9258,627.9219 846.332,627.6563 Q845.7383,627.375 845.1133,627.375 Q843.7695,627.375 843.082,628.4531 Q842.3945,629.5156 842.3945,631.6094 Q842.3945,633.7031 843.082,634.7813 Q843.7695,635.8438 845.1133,635.8438 Q845.7383,635.8438 846.332,635.5781 Q846.9258,635.2969 847.5508,634.7188 L847.5508,637.4375 Z " fill="#000000"/><text fill="#000000" font-family="sans-serif" font-size="14" lengthAdjust="spacing" textLength="120.4287" x="865.082" y="636.6436">RegistroAcciones</text><line style="stroke:#181818;stroke-width:0.5;" x1="723" x2="1095.0928" y1="647.7969" y2="647.7969"/><rect fill="none" height="6" style="stroke:#C82930;stroke-width:1;" width="6" x="730" y="658.4453"/><text fill="#000000" font-family="sans-serif" font-size="14" lengthAdjust="spacing" textLength="227.0488" x="742" y="664.792">historialCompleto: List&lt;Accion&gt;</text><rect fill="none" height="6" style="stroke:#C82930;stroke-width:1;" width="6" x="730" y="674.7422"/><text fill="#000000" font-family="sans-serif" font-size="14" lengthAdjust="spacing" textLength="241.7119" x="742" y="681.0889">pilaAccionesUndo: Stack&lt;Accion&gt;</text><line style="stroke:#181818;stroke-width:0.5;" x1="723" x2="1095.0928" y1="688.3906" y2="688.3906"/><ellipse cx="733" cy="702.0391" fill="#84BE84" rx="3" ry="3" style="stroke:#038048;stroke-width:1;"/><text fill="#000000" font-family="sans-serif" font-size="14" lengthAdjust="spacing" textLength="348.0928" x="742" y="705.3857">registrarAccion(tipo: String, cliente: Cliente): void</text><ellipse cx="733" cy="718.3359" fill="#84BE84" rx="3" ry="3" style="stroke:#038048;stroke-width:1;"/><text fill="#000000" font-family="sans-serif" font-size="14" lengthAdjust="spacing" textLength="251.3027" x="742" y="721.6826">popUltimaAccionUndoable(): Accion</text><ellipse cx="733" cy="734.6328" fill="#84BE84" rx="3" ry="3" style="stroke:#038048;stroke-width:1;"/><text fill="#000000" font-family="sans-serif" font-size="14" lengthAdjust="spacing" textLength="230.5488" x="742" y="737.9795">hayAccionesUndoable(): boolean</text></g><!--class Accion--><g class="entity" data-entity="Accion" data-source-line="96" data-uid="ent0015" id="entity_Accion"><rect fill="#F1F1F1" height="154.0469" rx="2.5" ry="2.5" style="stroke:#181818;stroke-width:0.5;" width="249.0088" x="22.5" y="603.2969"/><ellipse cx="105.1157" cy="623.4297" fill="#ADD1B2" rx="11" ry="11" style="stroke:#181818;stroke-width:1;"/><path d="M108.0845,629.0703 Q107.5063,629.3672 106.8657,629.5078 Q106.2251,629.6641 105.522,629.6641 Q103.022,629.6641 101.6938,628.0234 Q100.3813,626.3672 100.3813,623.2422 Q100.3813,620.1172 101.6938,618.4609 Q103.022,616.8047 105.522,616.8047 Q106.2251,616.8047 106.8657,616.9609 Q107.522,617.1172 108.0845,617.4141 L108.0845,620.1328 Q107.4595,619.5547 106.8657,619.2891 Q106.272,619.0078 105.647,619.0078 Q104.3032,619.0078 103.6157,620.0859 Q102.9282,621.1484 102.9282,623.2422 Q102.9282,625.3359 103.6157,626.4141 Q104.3032,627.4766 105.647,627.4766 Q106.272,627.4766 106.8657,627.2109 Q107.4595,626.9297 108.0845,626.3516 L108.0845,629.0703 Z " fill="#000000"/><text fill="#000000" font-family="sans-serif" font-size="12" font-style="italic" lengthAdjust="spacing" textLength="79.2773" x="123.6157" y="619.4355">&#171;inner class&#187;</text><text fill="#000000" font-family="sans-serif" font-size="14" lengthAdjust="spacing" textLength="46.2998" x="140.1045" y="635.2607">Accion</text><line style="stroke:#181818;stroke-width:0.5;" x1="23.5" x2="270.5088" y1="643.5625" y2="643.5625"/><rect fill="none" height="6" style="stroke:#C82930;stroke-width:1;" width="6" x="30.5" y="654.2109"/><text fill="#000000" font-family="sans-serif" font-size="14" lengthAdjust="spacing" textLength="124.0791" x="42.5" y="660.5576">tipoAccion: String</text><rect fill="none" height="6" style="stroke:#C82930;stroke-width:1;" width="6" x="30.5" y="670.5078"/><text fill="#000000" font-family="sans-serif" font-size="14" lengthAdjust="spacing" textLength="105.376" x="42.5" y="676.8545">cliente: Cliente</text><rect fill="none" height="6" style="stroke:#C82930;stroke-width:1;" width="6" x="30.5" y="686.8047"/><text fill="#000000" font-family="sans-serif" font-size="14" lengthAdjust="spacing" textLength="185.9717" x="42.5" y="693.1514">fechaHora: LocalDateTime</text><line style="stroke:#181818;stroke-width:0.5;" x1="23.5" x2="270.5088" y1="700.4531" y2="700.4531"/><ellipse cx="33.5" cy="714.1016" fill="#84BE84" rx="3" ry="3" style="stroke:#038048;stroke-width:1;"/><text fill="#000000" font-family="sans-serif" font-size="14" lengthAdjust="spacing" textLength="187.6123" x="42.5" y="717.4482">Accion(tipo, cliente, fecha)</text><ellipse cx="33.5" cy="730.3984" fill="#84BE84" rx="3" ry="3" style="stroke:#038048;stroke-width:1;"/><text fill="#000000" font-family="sans-serif" font-size="14" lengthAdjust="spacing" textLength="141.3672" x="42.5" y="733.7451">getCliente(): Cliente</text><ellipse cx="33.5" cy="746.6953" fill="#84BE84" rx="3" ry="3" style="stroke:#038048;stroke-width:1;"/><text fill="#000000" font-family="sans-serif" font-size="14" lengthAdjust="spacing" textLength="223.0088" x="42.5" y="750.042">getFechaHora(): LocalDateTime</text></g><!--reverse link JFrame to Vista--><g class="link" data-entity-1="JFrame" data-entity-2="Vista" data-source-line="18" data-uid="lnk7" id="link_JFrame_Vista"><path d="M2011,397.9869 C2011,433.2269 2011,484.8569 2011,548.0969" fill="none" id="JFrame-backto-Vista" style="stroke:#181818;stroke-width:1;"/><polygon fill="none" points="2011,379.9869,2005,397.9869,2017,397.9869,2011,379.9869" style="stroke:#181818;stroke-width:1;"/></g><!--link Main to Controlador--><g class="link" data-entity-1="Main" data-entity-2="Controlador" data-source-line="108" data-uid="lnk16" id="link_Main_Controlador"><path codeLine="108" d="M1555.98,142.3869 C1525.67,167.8369 1485.4245,201.618 1441.8945,238.178" fill="none" id="Main-to-Controlador" style="stroke:#181818;stroke-width:1;stroke-dasharray:7,7;"/><polygon fill="#181818" points="1437.3,242.0369,1446.7643,239.3116,1441.1287,238.8212,1441.6192,233.1856,1437.3,242.0369" style="stroke:#181818;stroke-width:1;"/><text fill="#000000" font-family="sans-serif" font-size="13" lengthAdjust="spacing" textLength="28.4565" x="1516" y="187.3638">crea</text></g><!--link Main to Vista--><g class="link" data-entity-1="Main" data-entity-2="Vista" data-source-line="109" data-uid="lnk17" id="link_Main_Vista"><path codeLine="109" d="M1616.07,142.6469 C1671.82,218.4069 1812.9336,410.1645 1910.8136,543.1645" fill="none" id="Main-to-Vista" style="stroke:#181818;stroke-width:1;stroke-dasharray:7,7;"/><polygon fill="#181818" points="1914.37,547.9969,1912.2571,538.3773,1911.4064,543.9699,1905.8138,543.1192,1914.37,547.9969" style="stroke:#181818;stroke-width:1;"/><text fill="#000000" font-family="sans-serif" font-size="13" lengthAdjust="spacing" textLength="28.4565" x="1871" y="360.3638">crea</text></g><!--reverse link Controlador to Vista--><g class="link" data-entity-1="Controlador" data-entity-2="Vista" data-source-line="110" data-uid="lnk18" id="link_Controlador_Vista"><path codeLine="110" d="M1449.8671,438.3755 C1513.9871,470.5255 1581.99,499.4369 1657,518.2969 C1702.14,529.6469 1823.68,512.4269 1866,531.7969 C1879.88,538.1469 1893.14,546.4569 1905.62,555.8969" fill="none" id="Controlador-backto-Vista" style="stroke:#181818;stroke-width:1;"/><polygon fill="none" points="1439.14,432.9969,1442.7107,439.2619,1449.8671,438.3755,1446.2964,432.1105,1439.14,432.9969" style="stroke:#181818;stroke-width:1;"/><text fill="#000000" font-family="sans-serif" font-size="13" lengthAdjust="spacing" textLength="22.9785" x="1658" y="514.3638">usa</text></g><!--reverse link Controlador to GestionCliente--><g class="link" data-entity-1="Controlador" data-entity-2="GestionCliente" data-source-line="111" data-uid="lnk19" id="link_Controlador_GestionCliente"><path codeLine="111" d="M1303,481.5869 C1303,524.2769 1303,559.9569 1303,599.0569" fill="none" id="Controlador-backto-GestionCliente" style="stroke:#181818;stroke-width:1;"/><polygon fill="#181818" points="1303,469.5869,1299,475.5869,1303,481.5869,1307,475.5869,1303,469.5869" style="stroke:#181818;stroke-width:1;"/><text fill="#000000" font-family="sans-serif" font-size="13" lengthAdjust="spacing" textLength="38.9746" x="1304" y="514.3638">posee</text></g><!--reverse link Controlador to HistorialAtencion--><g class="link" data-entity-1="Controlador" data-entity-2="HistorialAtencion" data-source-line="112" data-uid="lnk20" id="link_Controlador_HistorialAtencion"><path codeLine="112" d="M1155.0459,385.6653 C1030.6759,412.8053 855.56,458.9269 705,531.7969 C663.06,552.0969 620.45,580.6369 584.81,607.2069" fill="none" id="Controlador-backto-HistorialAtencion" style="stroke:#181818;stroke-width:1;"/><polygon fill="#181818" points="1166.77,383.1069,1160.0551,380.4781,1155.0459,385.6653,1161.7608,388.2941,1166.77,383.1069" style="stroke:#181818;stroke-width:1;"/><text fill="#000000" font-family="sans-serif" font-size="13" lengthAdjust="spacing" textLength="38.9746" x="767" y="514.3638">posee</text></g><!--reverse link Controlador to RegistroAcciones--><g class="link" data-entity-1="Controlador" data-entity-2="RegistroAcciones" data-source-line="113" data-uid="lnk21" id="link_Controlador_RegistroAcciones"><path codeLine="113" d="M1157.574,475.8376 C1097.404,525.0876 1038.12,573.6069 986.83,615.5969" fill="none" id="Controlador-backto-RegistroAcciones" style="stroke:#181818;stroke-width:1;"/><polygon fill="#181818" points="1166.86,468.2369,1159.6834,468.9419,1157.574,475.8376,1164.7506,475.1326,1166.86,468.2369" style="stroke:#181818;stroke-width:1;"/><text fill="#000000" font-family="sans-serif" font-size="13" lengthAdjust="spacing" textLength="38.9746" x="1118" y="514.3638">posee</text></g><!--SRC=[jLPTSjis47xNAV0MgfPq08wh6LgY6sUKIBNel7Jw015R2MCGO47GYTlnaNAAN2nBWgJ0FyLjKux7Czhz5lltxG9lo1u829vmIOd0lwzV952VP8zSfbJJX9oeP9yqDmOaCJg7oLcr4ZJB0cCqF-G6xc8bz-PP095AmkGDYRv-CRbGf02Z3y8uFQ8PdHXk4BMkVX86vKcGaJc983wLnpwi9dZ4p__sGzjTyEj368KasEqcAOqVwH48JLFozuJW5nTEo7lAPIKelYkIeC2Z-fZvP8zvoUDllqzzygGuAq4lavSV5TR7ktqK40_Bd-IG6LsM_mGQPCmfmLgI_IVqFsrYV-APeQteFvOI-8ojOHbvTulL12UREJaO6Hmr7AdsoRkRt1WbEzh25CQqeUN5c7eDsOd6ezOtUHOFsvhFfb566Fuj1y7E-Zdv1P1k6lamTrfp17FJvEDD-mSt49lK9KYTsILCdTubZ4rZ517LYPQ8eLH_DAjMsm_H_NOJhBVt3N6GIqOhGPdIBVgiUdBRdf9elcMN8puYIxcIAy516l2nIUvl1tX2GwKv5KKZOeJuv6rNvC2ndwZLAeWB1U3atNSa3bWgdL1XVHQhf-WqMwaS8q0sSMcS1ZZvUMvEK-SyQkbK9U6viru1B9d60TNol81W5P4UXE49jKaDUOfDJWN_Y-eGWsJgHfaYUUz_sZ_lj-jmisr8aYW6kAjR_B0PjRZ1MRlAHKUIWuPwNRfJpbErLuB7tEHiG9zgZfHWb0tQGfAgZS3UC6pRHiLKhB4L4K-W1plJR1XtLMVYSJQhufsLuStEGKmxaziwkUZ1sDbP3ynC1ztjTUbXLtik3dSAW0q-jw0zOwrEnCZiIeuZ4sXDdzVmPmxNbN3fkEkmFAv7k1BqusiR1E9MlzAmEmqLNwQDYUkaDLexfSybIUkIlCBG6yGOPUez0Laemom5JGjepTwNyhzJwzwEQfMxMMhOMouVWMrGyFrQbtSHP-eLfTEGgATgIwWBhJee9O2wDmrIBSu5nVgf11XNVV8obH-4Mvv3UIrXpU_OnHurkCYTPgyO7gT5_LgqMDpTvyE5NQaa5M1KTPm5Bzs5mGMjZtYGh0m0jrSFULLVALHNozODTqQ-tufKfUwoBfnHh5zHIIjni2Vwx0PLuzmkzQXc3SZrDPSIj1Kkbwso525RsC1wx6RWgFx01pHzgpGTtrXEKPfYpAnXPmjUd33KtzREXXTaSLlzbyiAZU_3JR2wstu8zoJ4bqrONr_x2Jxb5-NpVR5Oka-SXVkiyKciWJhOfNtTBEpJsI-rOyPgFc-ZIPwDetz2jBr45vsjxIEVCe3NMFPtq3ymxerPPViD]--></g></svg>